<svg width="1050" height="559" viewBox="0 0 1050 559" fill="none" xmlns="http://www.w3.org/2000/svg">
<path d="M145.725 262.823L110.908 202.557L172.014 168.593L172.043 168.646C176.726 166.189 183.035 166.629 189.899 170.568C203.752 178.523 214.588 197.693 214.106 213.385C213.876 220.912 201.316 231.892 190.945 237.62L190.961 237.645L190.574 237.859C190.467 237.921 190.364 237.978 190.253 238.036L145.725 262.823Z" fill="#0881C5"/>
<path d="M117.407 206.331L118.234 205.87C123.934 202.701 130.585 202.569 136.618 204.68C144.952 207.59 160.273 213.302 168.916 215.866C186.838 221.179 211.164 215.512 212.728 213.302C220.992 201.639 185.472 168.493 185.472 168.493C186.916 169.028 188.394 169.695 189.904 170.564C197.081 174.687 203.452 181.819 207.851 189.918C211.946 197.449 214.342 205.816 214.107 213.376C214.016 216.261 206.588 223.475 197.007 229.751L150.787 255.473C148.618 254.847 146.367 253.921 144.05 252.588C141.486 251.114 139.025 249.271 136.696 247.18L118.407 215.528C117.749 212.417 117.387 209.322 117.407 206.331Z" fill="#14D5FF"/>
<path d="M103.441 218.195C102.959 233.887 113.795 253.056 127.648 261.011C141.5 268.967 153.118 262.695 153.604 247.003C154.089 231.311 143.249 212.141 129.397 204.186C115.544 196.231 103.922 202.503 103.441 218.195Z" fill="#13AAFF"/>
<path d="M104.41 218.75C103.945 233.833 114.366 252.262 127.679 259.913C140.997 267.559 152.166 261.53 152.631 246.447C153.096 231.364 142.676 212.935 129.362 205.285C116.049 197.638 104.876 203.667 104.41 218.75Z" fill="#26BEFF"/>
<path d="M109.8 222.175C109.438 233.879 117.525 248.18 127.859 254.119C138.193 260.053 146.86 255.374 147.222 243.67C147.584 231.965 139.497 217.664 129.163 211.726C118.829 205.791 110.158 210.471 109.8 222.175Z" fill="#13AAFF"/>
<path d="M111.067 222.903C110.729 233.813 118.269 247.147 127.899 252.678C137.529 258.209 145.611 253.847 145.949 242.937C146.286 232.027 138.747 218.693 129.117 213.162C119.487 207.631 111.404 211.993 111.067 222.903Z" fill="black"/>
<path d="M129.343 213.306C138.866 218.915 146.286 232.113 145.953 242.941C145.903 244.492 145.685 245.896 145.34 247.176L132.158 254.505C130.788 254.11 129.368 253.526 127.903 252.682C118.433 247.242 111.005 234.27 111.075 223.463L129.343 213.306Z" fill="#5A5858"/>
<path d="M138.774 222.154C142.107 226.735 144.523 232.151 145.486 237.414L123.612 249.575C119.538 246.032 116.102 241.188 113.859 236.003L138.774 222.154Z" fill="#4DD4FF"/>
<path d="M138.774 222.154C142.107 226.735 144.523 232.151 145.486 237.414L123.612 249.575C119.538 246.032 116.102 241.188 113.859 236.003L138.774 222.154Z" fill="#8D8B8B"/>
<path d="M116.756 222.722C116.489 231.397 122.481 241.995 130.139 246.394C137.798 250.793 144.222 247.324 144.49 238.649C144.757 229.974 138.765 219.376 131.107 214.977C123.448 210.582 117.024 214.047 116.756 222.722Z" fill="#5A5858"/>
<path d="M119.225 223.302C118.995 230.743 124.135 239.838 130.707 243.608C137.275 247.382 142.79 244.406 143.016 236.966C143.247 229.525 138.107 220.43 131.534 216.66C124.966 212.886 119.456 215.858 119.225 223.302Z" fill="black"/>
<path d="M126.163 231.295C126.11 233.068 127.332 235.233 128.9 236.134C130.464 237.036 131.777 236.324 131.834 234.554C131.888 232.78 130.666 230.616 129.098 229.714C127.53 228.813 126.217 229.521 126.163 231.295Z" fill="#5A5858"/>
<path d="M207.684 323.027L172.868 262.765L233.973 228.8L234.002 228.854C238.685 226.397 244.994 226.837 251.859 230.776C265.711 238.731 276.547 257.9 276.066 273.592C275.835 281.12 263.275 292.099 252.904 297.828L252.921 297.853L252.534 298.067C252.427 298.129 252.324 298.186 252.217 298.244L207.684 323.027Z" fill="#146194"/>
<path d="M179.363 266.539L180.19 266.082C185.89 262.913 192.536 262.781 198.573 264.893C206.907 267.802 222.229 273.514 230.871 276.078C248.794 281.391 273.375 275.724 274.943 273.518C283.207 261.855 247.427 228.71 247.427 228.71C248.872 229.245 250.349 229.916 251.864 230.78C259.041 234.904 265.412 242.036 269.811 250.135C273.906 257.666 276.301 266.033 276.067 273.593C275.98 276.477 268.548 283.692 258.967 289.968L212.747 315.689C210.578 315.064 208.327 314.138 206.01 312.804C203.446 311.331 200.985 309.487 198.656 307.397L180.371 275.741C179.704 272.625 179.342 269.527 179.363 266.539Z" fill="#14D5FF"/>
<path d="M165.397 278.399C164.916 294.091 175.752 313.261 189.604 321.216C203.457 329.171 215.074 322.899 215.56 307.207C216.046 291.515 205.206 272.345 191.353 264.39C177.501 256.439 165.879 262.707 165.397 278.399Z" fill="#13AAFF"/>
<path d="M166.364 278.959C165.899 294.042 176.319 312.471 189.633 320.122C202.95 327.768 214.119 321.739 214.584 306.656C215.049 291.573 204.629 273.144 191.312 265.494C178.002 257.843 166.829 263.872 166.364 278.959Z" fill="#26BEFF"/>
<path d="M171.757 282.383C171.399 294.087 179.481 308.388 189.815 314.327C200.149 320.261 208.82 315.582 209.178 303.878C209.536 292.174 201.453 277.873 191.12 271.934C180.786 265.996 172.119 270.675 171.757 282.383Z" fill="#13AAFF"/>
<path d="M173.022 283.112C172.685 294.026 180.224 307.356 189.854 312.887C199.484 318.418 207.567 314.056 207.904 303.146C208.242 292.236 200.702 278.902 191.072 273.371C181.442 267.836 173.36 272.198 173.022 283.112Z" fill="black"/>
<path d="M191.3 273.51C200.823 279.119 208.243 292.317 207.909 303.145C207.86 304.697 207.642 306.1 207.296 307.38L194.115 314.709C192.744 314.314 191.324 313.73 189.859 312.89C180.39 307.45 172.961 294.478 173.031 283.671L191.3 273.51Z" fill="#5A5858"/>
<path d="M200.73 282.358C204.068 286.939 206.479 292.359 207.442 297.622L185.569 309.783C181.499 306.24 178.058 301.396 175.815 296.211L200.73 282.358Z" fill="#4DD4FF"/>
<path d="M200.73 282.358C204.068 286.939 206.479 292.359 207.442 297.622L185.569 309.783C181.499 306.24 178.058 301.396 175.815 296.211L200.73 282.358Z" fill="#8D8B8B"/>
<path d="M178.713 282.926C178.445 291.601 184.437 302.199 192.096 306.598C199.755 310.997 206.179 307.528 206.446 298.853C206.714 290.177 200.722 279.58 193.063 275.181C185.404 270.786 178.98 274.251 178.713 282.926Z" fill="#5A5858"/>
<path d="M181.179 283.506C180.948 290.951 186.089 300.042 192.661 303.816C199.229 307.59 204.744 304.614 204.97 297.174C205.2 289.729 200.06 280.638 193.488 276.864C186.92 273.09 181.409 276.066 181.179 283.506Z" fill="black"/>
<path d="M188.119 291.499C188.066 293.272 189.288 295.437 190.856 296.338C192.42 297.236 193.737 296.528 193.79 294.758C193.844 292.984 192.622 290.82 191.054 289.918C189.486 289.017 188.173 289.725 188.119 291.499Z" fill="#5A5858"/>
<path d="M262.977 368.107L228.161 307.841L289.267 273.876L289.296 273.93C293.979 271.473 300.288 271.913 307.152 275.852C321.005 283.807 331.841 302.977 331.359 318.669C331.129 326.196 318.569 337.176 308.198 342.904L308.21 342.929L307.823 343.143C307.716 343.205 307.613 343.262 307.506 343.32L262.977 368.107Z" fill="#8D9DAF"/>
<path d="M234.66 311.615L235.487 311.154C241.187 307.985 247.833 307.853 253.871 309.964C262.204 312.874 277.526 318.586 286.169 321.15C304.091 326.463 328.673 320.796 330.24 318.586C338.504 306.923 302.725 273.777 302.725 273.777C304.169 274.312 305.647 274.983 307.157 275.848C314.334 279.971 320.701 287.103 325.104 295.202C329.199 302.733 331.594 311.1 331.36 318.66C331.269 321.545 323.841 328.759 314.26 335.035L268.04 360.757C265.871 360.131 263.62 359.205 261.303 357.872C258.739 356.398 256.282 354.555 253.949 352.464L235.664 320.808C235.002 317.701 234.639 314.606 234.66 311.615Z" fill="#C3CDD9"/>
<path d="M220.698 323.479C220.216 339.172 231.052 358.341 244.904 366.296C258.757 374.251 270.375 367.979 270.86 352.291C271.342 336.599 260.506 317.43 246.654 309.475C232.801 301.516 221.179 307.787 220.698 323.479Z" fill="#728599"/>
<path d="M221.664 324.035C221.199 339.118 231.619 357.547 244.937 365.197C258.254 372.844 269.423 366.815 269.888 351.732C270.353 336.649 259.933 318.22 246.62 310.569C233.302 302.923 222.129 308.948 221.664 324.035Z" fill="#A7B4C4"/>
<path d="M227.053 327.459C226.691 339.163 234.778 353.464 245.112 359.403C255.445 365.337 264.117 360.658 264.475 348.954C264.833 337.245 256.75 322.944 246.416 317.01C236.082 311.075 227.415 315.75 227.053 327.459Z" fill="#728599"/>
<path d="M228.322 328.188C227.989 339.098 235.524 352.432 245.154 357.963C254.788 363.494 262.867 359.136 263.204 348.222C263.542 337.312 256.002 323.978 246.372 318.447C236.742 312.915 228.66 317.278 228.322 328.188Z" fill="black"/>
<path d="M246.599 318.591C256.122 324.2 263.542 337.398 263.209 348.226C263.159 349.777 262.941 351.181 262.595 352.46L249.414 359.79C248.043 359.395 246.624 358.81 245.158 357.967C235.689 352.526 228.261 339.554 228.331 328.747L246.599 318.591Z" fill="#5A5858"/>
<path d="M256.03 327.434C259.368 332.015 261.78 337.435 262.743 342.694L240.869 354.855C236.799 351.312 233.359 346.468 231.116 341.283L256.03 327.434Z" fill="#FDFFF8"/>
<path d="M256.03 327.434C259.368 332.015 261.78 337.435 262.743 342.694L240.869 354.855C236.799 351.312 233.359 346.468 231.116 341.283L256.03 327.434Z" fill="#8D8B8B"/>
<path d="M234.009 328.006C233.742 336.682 239.734 347.279 247.392 351.678C255.051 356.078 261.475 352.608 261.743 343.933C262.01 335.258 256.018 324.656 248.36 320.261C240.701 315.862 234.277 319.331 234.009 328.006Z" fill="#5A5858"/>
<path d="M236.478 328.587C236.248 336.028 241.388 345.123 247.96 348.897C254.528 352.671 260.043 349.695 260.269 342.255C260.5 334.814 255.36 325.719 248.787 321.945C242.219 318.171 236.709 321.142 236.478 328.587Z" fill="black"/>
<path d="M243.42 336.579C243.366 338.352 244.588 340.517 246.156 341.418C247.72 342.315 249.033 341.608 249.091 339.838C249.148 338.068 247.922 335.9 246.354 334.998C244.786 334.097 243.473 334.805 243.42 336.579Z" fill="#5A5858"/>
<path d="M37.6782 145.772L263.557 338.657L429.486 218.409L428.803 208.343L307.769 247.999L35.7275 138.191C36.7111 141.953 37.2544 144.43 37.6782 145.772Z" fill="#0286D1"/>
<path d="M35.7275 138.191L258.956 325.85L432.754 232.907L116.077 95.0453C116.077 95.0453 62.2102 106.009 35.7275 138.191Z" fill="#009AF1"/>
<path d="M91.8208 101.778L374.364 236.521L282.899 276.304L61.3667 115.314L91.8208 101.778Z" fill="#05B1FB"/>
<path d="M282.899 276.305L61.3665 115.314L35.7275 138.191L233.103 303.125L282.899 276.305Z" fill="#17D5FF"/>
<path d="M470.524 122.454L562.689 201.511L628.963 150.077L628.688 146.007L579.747 162.044L469.742 117.639C470.133 119.166 470.351 121.915 470.524 122.454Z" fill="#0286D1"/>
<path d="M469.739 117.643L560.007 193.527L630.286 155.945L502.23 100.198C506.794 99.2677 478.513 106.98 469.739 117.643Z" fill="#009AF1"/>
<path d="M494.411 103.218L598.81 153.208L567.55 177.415L481.093 108.926L494.411 103.218Z" fill="#05B1FB"/>
<path d="M587.843 193.273L481.094 108.927C481.094 108.927 471.583 114.421 469.739 117.644L549.554 184.338L587.843 193.273Z" fill="#17D5FF"/>
<path d="M0 522.785C0 524.612 0.201648 526.44 0.641997 528.164C2.06181 534.016 5.78213 539.292 11.3626 542.502C14.7455 544.465 18.5317 545.819 22.6594 546.63C25.3674 547.206 28.2399 547.543 31.2483 547.679H31.5199C32.2648 547.712 33.0097 547.745 33.7505 547.745C34.3266 547.745 34.9357 547.712 35.5448 547.712C36.3885 547.712 37.2692 547.679 38.2157 547.642C39.4997 547.576 40.8208 547.506 42.1747 547.371C61.048 545.745 95.42 542.626 116.083 535.424C126.602 531.773 124.495 524.032 133.697 521.127C138.13 519.707 142.323 518.489 146.245 517.542C147.361 517.238 148.443 516.999 149.558 516.731C149.558 516.731 301.656 446.193 301.791 446.16L547.576 304.31L559.145 297.614C562.392 295.417 565.532 293.054 568.647 290.68C576.52 284.676 584.138 278.334 591.484 271.696C601.274 262.847 610.596 253.452 619.139 243.394C628.279 232.632 636.609 221.064 643.103 208.503C646.268 202.384 648.988 196.021 651.042 189.441C652.042 186.227 652.886 182.959 653.536 179.654C653.861 178 654.215 176.308 654.342 174.621C654.503 172.506 655.614 171.222 657.12 169.687C657.585 169.209 658.075 168.757 658.581 168.325C660.1 167.036 661.89 165.835 662.511 163.942C662.968 162.551 662.688 161.003 662.059 159.678C661.433 158.357 660.483 157.217 659.544 156.094C657.33 153.443 655.067 150.748 652.149 148.892C651.034 148.184 649.61 147.826 648.585 147.027C647.778 146.398 647.009 145.307 646.268 144.566C646.066 144.365 645.861 144.196 645.626 144.023C645.289 143.686 644.881 143.348 644.511 143.077C644.103 142.706 643.663 142.402 643.227 142.097C643.025 141.928 642.819 141.792 642.585 141.657C642.144 141.319 641.671 141.015 641.198 140.71C640.893 140.508 640.589 140.303 640.251 140.101C639.609 139.731 638.934 139.323 638.189 138.953C637.379 138.48 636.498 138.039 635.617 137.632C634.737 137.191 633.823 136.784 632.909 136.414C631.996 136.006 631.082 135.669 630.135 135.298C627.193 134.183 624.082 133.204 620.802 132.356C616.608 131.241 612.213 130.327 607.715 129.549C604.332 128.94 600.85 128.467 597.397 128.026C596.245 127.858 595.097 127.722 593.982 127.619C588.265 126.944 582.549 126.467 577.001 126.03C575.31 125.895 573.619 125.759 571.964 125.66C560.836 125.66 549.844 127.113 539.222 129.989C528.604 132.829 518.353 137.056 508.714 142.603L102.005 378.227C76.3656 393.006 54.9901 413.875 39.6355 438.905C39.4339 439.242 39.1952 439.58 39.0264 439.954C38.047 441.51 37.1004 443.102 36.2197 444.691C32.8369 450.642 29.8285 456.799 27.1576 463.157L14.5439 488.454L10.2844 496.977L7.67935 502.187L1.76137 514.023C1.01648 515.781 0.543211 517.575 0.271594 519.402C0.23867 519.468 0.238688 519.538 0.238688 519.604C0.135803 520.888 0.0699417 521.871 0.0370184 522.378C-2.03444e-05 522.513 0 522.649 0 522.785Z" fill="#E7EBF0"/>
<path d="M7.87891 521.094C7.87891 529.008 12.0066 536.617 19.2415 540.811C20.5585 541.576 21.9577 542.222 23.394 542.803C25.5299 543.704 27.7563 544.49 30.168 545.037C30.2009 545.037 30.2709 545.07 30.3696 545.103C30.5054 545.136 30.7071 545.206 30.9787 545.239C32.0611 545.478 34.4603 545.848 39.1313 545.984H39.403C40.1149 546.017 40.8557 546.017 41.6706 546.017C42.9916 546.017 44.4772 546.017 46.1028 545.951C53.2719 545.815 63.5193 545.206 78.0631 543.683C101.163 539.251 125.551 531.304 144.897 525.217C150.581 523.39 152.577 516.118 157.379 515.073C157.379 515.073 157.412 515.073 157.445 515.04L309.543 444.502C309.646 444.469 309.679 444.469 309.679 444.469L555.463 302.619L567.032 295.923C567.032 295.923 659.501 233.352 662.851 166.485C662.917 165.098 662.954 163.711 662.954 162.325V162.086L654.229 167.123L651.184 168.884L569.662 256.111C569.662 256.111 209.999 467.993 146.684 498.5C109.513 516.427 68.1162 521.127 40.3125 521.905C20.7313 522.448 7.87891 521.094 7.87891 521.094Z" fill="#CCD8E3"/>
<path d="M66.7439 411.463C62.8466 415.797 70.2132 417.035 74.592 415.871C74.6949 415.842 95.7617 406.109 95.8523 406.055L480.034 183.424C485.685 180.177 539.358 149.604 584.883 124.339C583.191 124.203 581.5 124.067 579.845 123.969C568.717 123.969 557.725 125.421 547.103 128.298C536.485 131.138 526.234 135.368 516.596 140.912L109.886 376.536C93.6546 385.898 79.1149 397.709 66.7439 411.463Z" fill="#CCD8E3"/>
<path d="M30.7637 455.115L21.4629 474.585C31.9901 480.137 48.8592 487.228 59.5922 487.907C74.0496 488.825 88.4988 486.014 101.783 480.236L149.835 459.333C152.21 457.963 154.584 456.593 156.959 455.222C163.56 451.411 262.05 393.569 268.651 389.758C278.693 383.96 288.73 378.165 298.772 372.367C311.472 365.033 324.168 357.703 336.868 350.37C351.441 341.954 366.014 333.542 380.586 325.126C396.249 316.08 411.917 307.034 427.58 297.993C443.552 288.77 459.524 279.548 475.5 270.325C490.999 261.378 506.497 252.427 521.996 243.48C536.235 235.258 550.474 227.035 564.714 218.816C576.912 211.775 589.11 204.729 601.308 197.688C610.679 192.276 620.054 186.864 629.425 181.453C635.19 178.123 640.956 174.802 646.718 171.469C647.133 171.23 647.812 170.991 648.141 170.646C649.919 168.777 656.726 159.719 655.455 157.797C654.652 156.583 632.511 120.812 616.379 132.652C604.053 141.698 574.772 156.97 573.611 157.62L281.829 325.92L258.795 339.213C224.139 357.716 101.499 425.723 79.9388 430.233C55.3245 435.382 53.0446 419.826 52.8758 420.196C47.5176 427.069 44.0524 431.801 43.1717 433.39C39.7888 439.333 33.4346 448.753 30.7637 455.115Z" fill="#FAFDFF"/>
<path d="M157.44 515.04L309.674 444.468L555.458 302.618L567.027 295.923C567.027 295.923 659.496 233.352 662.846 166.485C657.842 172.065 652.87 179.234 649.319 188.198C638.664 214.915 584.888 263.452 578.497 271.736C572.134 279.955 162.412 512.266 157.44 515.04Z" fill="#BCC6D1"/>
<path d="M30.1001 545.004C30.1001 545.004 30.1001 545.004 30.1659 545.037C30.1989 545.037 30.2688 545.07 30.3676 545.103C30.5034 545.135 30.7051 545.205 30.9767 545.238C32.0591 545.477 34.4583 545.847 39.1293 545.983H39.4009C40.1129 546.016 40.8537 546.016 41.6685 546.016C42.9896 546.016 38.1499 547.811 39.7755 547.741C46.9445 547.605 63.5172 545.201 78.0611 543.683C90.1357 542.399 105.256 540.954 123.923 537.765C171.045 529.715 309.672 444.464 309.672 444.464C309.672 444.464 309.64 444.464 309.537 444.497C306.932 445.003 172.897 507.393 162.514 512.196C159.806 513.447 156.999 514.698 154.126 515.85C140.969 521.295 126.808 526.192 111.857 528.024C76.5137 532.357 59.0191 532.522 43.8662 534.719C37.2362 535.699 31.8944 544.798 30.5405 544.934C30.2359 544.971 30.1001 545.004 30.1001 545.004Z" fill="#BCC6D1"/>
<path d="M597.244 210.228L700.159 224.557L741.486 202.882L742.597 197.602L674.507 200.4L597.343 206.042C597.306 208.121 597.224 209.474 597.244 210.228Z" fill="#0286D1"/>
<path d="M597.342 206.042L699.482 220.274L742.595 197.602L661.028 168.893C661.028 168.893 620.75 186.461 597.342 206.042Z" fill="#009AF1"/>
<path d="M0 522.785C0 524.612 0.201648 526.44 0.641997 528.164C11.091 539.292 32.9439 537.835 43.8333 536.28C43.4629 531.444 41.8373 526.37 39.2651 521.464C36.8288 516.596 33.483 511.929 29.491 508.035C26.244 504.723 22.4907 501.912 18.6346 499.85C15.6921 498.327 12.8853 497.381 10.2803 496.973L7.67523 502.183L1.75726 514.019C1.01237 515.777 0.539098 517.571 0.26748 519.398C0.234557 519.464 0.234575 519.534 0.234575 519.6C0.13169 520.884 0.0658285 521.867 0.0329052 522.374C-1.80869e-05 522.514 0 522.649 0 522.785Z" fill="#05B1FB"/>
<path d="M30.7739 455.094L31.7863 457.3L36.3709 467.412L36.9512 468.712L52.2276 468.642L76.4632 468.498L85.0974 468.461L104.419 461.922L111.535 437.217L105.218 438.917L81.9162 445.164L75.599 444.588L59.9563 443.139L52.3716 442.456L49.2316 439.349L43.1613 433.39L35.0005 446.32L30.7739 455.094Z" fill="url(#paint0_linear_104_258)"/>
<path d="M720.557 209.19L619.52 190.535L597.342 206.042L699.486 220.269L720.557 209.19Z" fill="#17D5FF"/>
<path d="M734.47 201.874L651.441 173.337L619.522 190.536L720.56 209.191L734.47 201.874Z" fill="#05B1FB"/>
<path d="M0.63916 528.164C2.05898 534.016 5.77929 539.292 11.3598 542.502C14.7427 544.465 18.5289 545.819 22.6566 546.629C25.3646 547.206 28.2371 547.543 31.2455 547.679H31.5171C32.262 547.712 33.0069 547.745 33.7476 547.745C34.3238 547.745 34.9329 547.712 35.542 547.712C36.3856 547.712 37.2663 547.679 38.2129 547.642C39.4969 547.576 40.8179 547.506 42.1719 547.37C42.3406 547 42.5094 546.592 42.6452 546.185C43.5259 544.053 43.9662 541.551 43.9662 538.744C43.9662 537.934 43.9333 537.086 43.8304 536.275C32.941 537.835 11.0882 539.288 0.63916 528.164Z" fill="#0286D1"/>
<path d="M578.495 124.681L617.279 12.7989L664.437 0L668.454 1.88897L648.301 150.007L632.024 134.504C605.361 128.092 594.611 127.952 584.323 128.203C582.236 128.253 579.121 125.1 578.495 124.681Z" fill="#0286D1"/>
<path d="M584.318 128.203L620.365 15.2061L668.45 1.88867L655.445 157.793C655.445 157.793 634.559 127.952 584.318 128.203Z" fill="#05B1FB"/>
<path d="M640.564 9.61334L616.373 132.644L584.318 128.203L620.365 15.2062L640.564 9.61334Z" fill="#0DE2FF"/>
<path d="M658.952 4.51844L643.215 142.097L657.104 137.952L668.451 1.88867L658.952 4.51844Z" fill="#009AF1"/>
<path d="M734.829 496.101L700.013 435.835L761.118 401.87L761.151 401.924C765.835 399.467 772.144 399.907 779.008 403.85C792.861 411.805 803.696 430.974 803.215 446.666C802.984 454.193 790.424 465.173 780.053 470.902L780.07 470.927L779.683 471.141C779.576 471.198 779.469 471.26 779.362 471.318L734.829 496.101Z" fill="#0881C5"/>
<path d="M706.505 439.608L707.332 439.151C713.032 435.982 719.682 435.851 725.715 437.962C734.049 440.872 749.371 446.584 758.013 449.148C775.936 454.461 800.517 448.794 802.085 446.584C810.349 434.921 774.57 401.775 774.57 401.775C776.014 402.31 777.491 402.977 779.002 403.845C786.179 407.969 792.55 415.101 796.949 423.2C801.044 430.731 803.439 439.098 803.205 446.658C803.118 449.543 795.686 456.757 786.105 463.033L739.885 488.759C737.716 488.133 735.465 487.203 733.148 485.874C730.584 484.4 728.123 482.557 725.794 480.466L707.509 448.81C706.85 445.695 706.484 442.596 706.505 439.608Z" fill="#14D5FF"/>
<path d="M692.542 451.469C692.056 467.161 702.896 486.331 716.749 494.286C730.601 502.241 742.219 495.969 742.704 480.277C743.186 464.585 732.35 445.415 718.498 437.46C704.645 429.509 693.023 435.781 692.542 451.469Z" fill="#13AAFF"/>
<path d="M693.514 452.029C693.049 467.112 703.469 485.541 716.783 493.191C730.1 500.838 741.269 494.813 741.734 479.726C742.199 464.643 731.779 446.214 718.466 438.563C705.148 430.917 693.979 436.942 693.514 452.029Z" fill="#26BEFF"/>
<path d="M698.901 455.453C698.543 467.161 706.625 481.462 716.959 487.397C727.293 493.331 735.96 488.652 736.322 476.948C736.68 465.239 728.597 450.938 718.264 445.004C707.93 439.065 699.263 443.745 698.901 455.453Z" fill="#13AAFF"/>
<path d="M700.173 456.181C699.836 467.095 707.375 480.425 717.005 485.956C726.639 491.487 734.718 487.129 735.055 476.215C735.393 465.301 727.853 451.971 718.219 446.44C708.589 440.908 700.506 445.267 700.173 456.181Z" fill="black"/>
<path d="M718.444 446.58C727.967 452.189 735.387 465.387 735.053 476.215C735.004 477.767 734.786 479.17 734.44 480.45L721.258 487.779C719.888 487.384 718.468 486.8 717.003 485.956C707.534 480.516 700.105 467.544 700.175 456.737L718.444 446.58Z" fill="#5A5858"/>
<path d="M727.878 455.428C731.216 460.009 733.627 465.429 734.59 470.692L712.717 482.853C708.647 479.31 705.206 474.466 702.963 469.281L727.878 455.428Z" fill="#4DD4FF"/>
<path d="M727.878 455.428C731.216 460.009 733.627 465.429 734.59 470.692L712.717 482.853C708.647 479.31 705.206 474.466 702.963 469.281L727.878 455.428Z" fill="#8D8B8B"/>
<path d="M705.857 456C705.59 464.675 711.582 475.277 719.241 479.672C726.899 484.071 733.324 480.602 733.591 471.927C733.859 463.251 727.866 452.654 720.208 448.255C712.549 443.856 706.125 447.325 705.857 456Z" fill="#5A5858"/>
<path d="M708.323 456.576C708.092 464.017 713.233 473.112 719.805 476.882C726.373 480.656 731.888 477.68 732.114 470.239C732.345 462.799 727.205 453.704 720.632 449.93C714.064 446.16 708.553 449.136 708.323 456.576Z" fill="black"/>
<path d="M715.264 464.573C715.21 466.346 716.433 468.511 718.001 469.408C719.565 470.305 720.877 469.598 720.935 467.824C720.989 466.05 719.766 463.885 718.198 462.984C716.63 462.087 715.322 462.799 715.264 464.573Z" fill="#5A5858"/>
<path d="M622.991 482.277L588.174 422.015L649.28 388.051L649.309 388.104C653.992 385.647 660.301 386.088 667.166 390.026C681.018 397.981 691.854 417.151 691.372 432.843C691.142 440.37 678.582 451.35 668.211 457.079L668.227 457.103L667.84 457.317C667.733 457.375 667.631 457.437 667.524 457.494L622.991 482.277Z" fill="#0881C5"/>
<path d="M594.669 425.785L595.492 425.328C601.192 422.159 607.843 422.032 613.876 424.139C622.21 427.048 637.531 432.76 646.174 435.324C664.096 440.637 688.422 434.97 689.986 432.76C698.25 421.097 662.726 387.952 662.726 387.952C664.17 388.487 665.648 389.154 667.158 390.022C674.335 394.146 680.702 401.278 685.105 409.377C689.2 416.908 691.596 425.275 691.361 432.839C691.275 435.724 683.842 442.938 674.261 449.214L628.041 474.935C625.872 474.31 623.621 473.384 621.304 472.05C618.74 470.577 616.279 468.733 613.95 466.643L595.665 434.991C595.011 431.872 594.649 428.777 594.669 425.785Z" fill="#14D5FF"/>
<path d="M580.707 437.646C580.225 453.338 591.061 472.508 604.914 480.463C618.766 488.418 630.384 482.146 630.87 466.454C631.351 450.762 620.515 431.592 606.663 423.637C592.81 415.686 581.188 421.958 580.707 437.646Z" fill="#13AAFF"/>
<path d="M581.674 438.206C581.209 453.289 591.629 471.718 604.942 479.368C618.26 487.015 629.429 480.985 629.894 465.902C630.359 450.819 619.939 432.391 606.625 424.74C593.312 417.09 582.139 423.119 581.674 438.206Z" fill="#26BEFF"/>
<path d="M587.066 441.629C586.708 453.338 594.791 467.639 605.125 473.573C615.458 479.508 624.13 474.828 624.488 463.124C624.846 451.416 616.763 437.115 606.429 431.18C596.095 425.246 587.428 429.921 587.066 441.629Z" fill="#13AAFF"/>
<path d="M588.335 442.358C587.997 453.272 595.537 466.602 605.167 472.133C614.797 477.664 622.879 473.306 623.217 462.392C623.554 451.478 616.015 438.148 606.385 432.617C596.755 427.086 588.672 431.444 588.335 442.358Z" fill="black"/>
<path d="M606.612 432.757C616.135 438.367 623.555 451.565 623.221 462.392C623.172 463.944 622.954 465.347 622.608 466.627L609.427 473.957C608.056 473.562 606.636 472.977 605.171 472.134C595.702 466.693 588.273 453.721 588.343 442.914L606.612 432.757Z" fill="#5A5858"/>
<path d="M616.043 441.605C619.38 446.185 621.792 451.605 622.755 456.865L600.882 469.026C596.811 465.482 593.371 460.639 591.128 455.453L616.043 441.605Z" fill="#4DD4FF"/>
<path d="M616.043 441.605C619.38 446.185 621.792 451.605 622.755 456.865L600.882 469.026C596.811 465.482 593.371 460.639 591.128 455.453L616.043 441.605Z" fill="#8D8B8B"/>
<path d="M594.022 442.177C593.754 450.852 599.746 461.453 607.405 465.849C615.064 470.248 621.488 466.779 621.756 458.103C622.023 449.428 616.031 438.831 608.372 434.432C600.713 430.032 594.289 433.501 594.022 442.177Z" fill="#5A5858"/>
<path d="M596.491 442.753C596.261 450.198 601.401 459.289 607.973 463.058C614.542 466.832 620.056 463.857 620.283 456.416C620.513 448.971 615.373 439.88 608.801 436.111C602.232 432.337 596.722 435.312 596.491 442.753Z" fill="black"/>
<path d="M603.428 450.75C603.375 452.523 604.597 454.688 606.165 455.589C607.729 456.491 609.042 455.779 609.1 454.005C609.153 452.231 607.931 450.067 606.363 449.165C604.795 448.268 603.482 448.976 603.428 450.75Z" fill="#5A5858"/>
<path d="M531.203 457.486L496.386 397.219L557.492 363.255L557.521 363.308C562.204 360.852 568.513 361.292 575.377 365.23C589.23 373.185 600.066 392.355 599.584 408.047C599.354 415.574 586.794 426.554 576.423 432.283L576.439 432.308L576.052 432.521C575.945 432.583 575.843 432.641 575.731 432.698L531.203 457.486Z" fill="#0881C5"/>
<path d="M502.885 400.993L503.712 400.537C509.412 397.368 516.062 397.236 522.095 399.347C530.429 402.261 545.747 407.973 554.393 410.533C572.316 415.846 596.642 410.179 598.206 407.973C606.47 396.31 570.945 363.164 570.945 363.164C572.39 363.699 573.867 364.37 575.378 365.235C582.555 369.358 588.921 376.49 593.329 384.589C597.424 392.121 599.819 400.487 599.584 408.047C599.498 410.932 592.066 418.146 582.485 424.422L536.265 450.144C534.096 449.518 531.845 448.592 529.528 447.259C526.964 445.786 524.503 443.942 522.174 441.851L503.889 410.2C503.226 407.08 502.864 403.985 502.885 400.993Z" fill="#14D5FF"/>
<path d="M488.919 412.854C488.437 428.546 499.273 447.715 513.126 455.67C526.978 463.626 538.596 457.354 539.082 441.662C539.563 425.97 528.727 406.8 514.875 398.845C501.022 390.894 489.4 397.166 488.919 412.854Z" fill="#13AAFF"/>
<path d="M489.886 413.414C489.421 428.497 499.841 446.926 513.154 454.576C526.472 462.223 537.641 456.193 538.106 441.11C538.571 426.023 528.151 407.599 514.837 399.948C501.52 392.298 490.351 398.327 489.886 413.414Z" fill="#26BEFF"/>
<path d="M495.278 416.838C494.916 428.546 503.003 442.847 513.337 448.781C523.671 454.716 532.342 450.037 532.7 438.332C533.062 426.628 524.975 412.327 514.641 406.388C504.308 400.45 495.636 405.129 495.278 416.838Z" fill="#13AAFF"/>
<path d="M496.544 417.566C496.206 428.48 503.746 441.81 513.376 447.341C523.01 452.872 531.088 448.514 531.426 437.6C531.763 426.69 524.224 413.356 514.594 407.825C504.964 402.294 496.881 406.652 496.544 417.566Z" fill="black"/>
<path d="M514.823 407.964C524.346 413.574 531.766 426.772 531.433 437.6C531.383 439.151 531.165 440.554 530.819 441.834L517.638 449.164C516.267 448.769 514.848 448.184 513.382 447.345C503.913 441.904 496.485 428.932 496.559 418.125L514.823 407.964Z" fill="#5A5858"/>
<path d="M524.252 416.813C527.59 421.393 530.001 426.809 530.964 432.073L509.091 444.234C505.021 440.691 501.58 435.847 499.337 430.661L524.252 416.813Z" fill="#4DD4FF"/>
<path d="M524.252 416.813C527.59 421.393 530.001 426.809 530.964 432.073L509.091 444.234C505.021 440.691 501.58 435.847 499.337 430.661L524.252 416.813Z" fill="#8D8B8B"/>
<path d="M502.234 417.385C501.967 426.06 507.959 436.657 515.618 441.057C523.276 445.456 529.7 441.987 529.968 433.311C530.235 424.636 524.243 414.035 516.585 409.64C508.926 405.24 502.502 408.705 502.234 417.385Z" fill="#5A5858"/>
<path d="M504.703 417.961C504.477 425.406 509.617 434.497 516.185 438.271C522.753 442.045 528.268 439.069 528.494 431.628C528.725 424.184 523.585 415.093 517.012 411.323C510.444 407.545 504.933 410.52 504.703 417.961Z" fill="black"/>
<path d="M511.641 425.953C511.587 427.727 512.81 429.892 514.378 430.793C515.941 431.69 517.254 430.982 517.312 429.213C517.365 427.439 516.143 425.274 514.575 424.373C513.007 423.472 511.694 424.184 511.641 425.953Z" fill="#5A5858"/>
<path d="M374.368 384.762L970.218 470.149L1047.46 429.637L1049.54 419.764L922.286 424.995L374.553 376.939C374.479 380.828 374.327 383.359 374.368 384.762Z" fill="#0286D1"/>
<path d="M374.554 376.938L968.964 462.144L1049.54 419.768L541.949 280.181C541.949 280.181 418.301 340.344 374.554 376.938Z" fill="#009AF1"/>
<path d="M425.347 342.661L1010.95 440.061L968.964 462.144L374.554 376.939L425.347 342.661Z" fill="#17D5FF"/>
<path d="M512.949 294.73L1035.87 426.954L1010.95 440.061L425.344 342.662L512.949 294.73Z" fill="#05B1FB"/>
<path d="M551.059 246.007V250.357L551.067 251.118V253.213L551.075 254.152C551.075 254.81 551.791 255.217 552.343 254.896L555.763 252.921C556.363 252.575 556.75 251.942 556.787 251.25C556.787 251.201 556.795 251.155 556.795 251.106V247.019H556.787V242.958C556.787 242.299 556.084 241.892 555.503 242.221L555.265 242.357L555.104 242.456L552.112 244.188C551.808 244.365 551.557 244.612 551.384 244.896C551.17 245.225 551.059 245.612 551.059 246.007Z" fill="#456475"/>
<path d="M556.184 242.611L556.188 250.76C556.188 251.505 555.793 252.2 555.147 252.571L551.736 254.542C551.575 254.637 551.402 254.661 551.233 254.645C551.476 254.978 551.945 255.122 552.345 254.892L555.756 252.921C556.398 252.55 556.797 251.855 556.793 251.11L556.789 242.961C556.789 242.496 556.431 242.163 556.02 242.118C556.118 242.258 556.184 242.422 556.184 242.611Z" fill="#9DC2FF"/>
<path d="M531.686 256.855V261.205L531.694 261.967V264.061L531.702 265C531.702 265.658 532.419 266.066 532.97 265.745L536.39 263.769C536.991 263.424 537.378 262.79 537.419 262.098C537.419 262.049 537.427 262 537.427 261.954V257.872H537.419V253.81C537.419 253.151 536.711 252.744 536.135 253.073L535.896 253.209L535.736 253.304L532.744 255.036C532.439 255.213 532.192 255.464 532.015 255.744C531.801 256.078 531.686 256.46 531.686 256.855Z" fill="#456475"/>
<path d="M536.813 253.46L536.818 261.608C536.818 262.353 536.422 263.049 535.78 263.419L532.369 265.39C532.208 265.485 532.031 265.51 531.867 265.493C532.11 265.827 532.579 265.971 532.978 265.74L536.39 263.769C537.036 263.398 537.431 262.703 537.431 261.958L537.427 253.81C537.427 253.344 537.069 253.011 536.657 252.97C536.748 253.106 536.813 253.27 536.813 253.46Z" fill="#9DC2FF"/>
<path d="M512.322 267.703V272.053L512.33 272.815V274.909L512.338 275.848C512.338 276.506 513.05 276.914 513.606 276.593L517.026 274.617C517.627 274.271 518.013 273.638 518.055 272.946C518.055 272.897 518.063 272.852 518.063 272.802V268.716H518.055V264.654C518.055 263.995 517.347 263.588 516.771 263.917L516.532 264.053L516.371 264.148L513.379 265.88C513.075 266.057 512.828 266.304 512.651 266.588C512.433 266.925 512.322 267.312 512.322 267.703Z" fill="#456475"/>
<path d="M517.45 264.313L517.454 272.461C517.454 273.206 517.059 273.901 516.417 274.272L513.006 276.243C512.845 276.338 512.668 276.362 512.503 276.346C512.746 276.679 513.215 276.823 513.615 276.593L517.026 274.622C517.672 274.251 518.067 273.556 518.067 272.811L518.063 264.662C518.063 264.197 517.705 263.864 517.294 263.819C517.384 263.959 517.45 264.123 517.45 264.313Z" fill="#9DC2FF"/>
<path d="M492.949 278.555V282.905L492.957 283.667V285.762L492.965 286.7C492.965 287.358 493.677 287.766 494.233 287.445L497.653 285.469C498.254 285.124 498.64 284.49 498.682 283.798C498.682 283.749 498.69 283.7 498.69 283.654V279.572H498.682V275.51C498.682 274.852 497.974 274.444 497.397 274.773L497.159 274.909L496.998 275.004L494.006 276.736C493.702 276.913 493.455 277.164 493.278 277.444C493.064 277.778 492.949 278.16 492.949 278.555Z" fill="#456475"/>
<path d="M498.076 275.16L498.08 283.309C498.08 284.053 497.685 284.749 497.043 285.119L493.631 287.091C493.467 287.185 493.294 287.21 493.129 287.193C493.372 287.527 493.841 287.671 494.241 287.44L497.652 285.469C498.298 285.099 498.693 284.403 498.693 283.658L498.689 275.51C498.689 275.045 498.331 274.711 497.92 274.67C498.01 274.806 498.076 274.971 498.076 275.16Z" fill="#9DC2FF"/>
<path d="M473.582 289.404V293.754L473.59 294.515V296.61L473.598 297.549C473.598 298.207 474.31 298.614 474.866 298.293L478.286 296.318C478.887 295.972 479.274 295.339 479.315 294.647C479.315 294.598 479.323 294.552 479.323 294.503V290.417H479.315V286.355C479.315 285.696 478.611 285.289 478.031 285.618L477.788 285.754L477.627 285.848L474.636 287.581C474.331 287.758 474.084 288.005 473.907 288.289C473.693 288.626 473.582 289.013 473.582 289.404Z" fill="#456475"/>
<path d="M478.706 286.013L478.711 294.162C478.711 294.907 478.315 295.602 477.673 295.972L474.262 297.944C474.101 298.038 473.924 298.063 473.76 298.047C474.003 298.38 474.472 298.524 474.871 298.294L478.283 296.322C478.929 295.952 479.324 295.256 479.32 294.511L479.316 286.363C479.316 285.898 478.958 285.565 478.546 285.523C478.645 285.659 478.706 285.824 478.706 286.013Z" fill="#9DC2FF"/>
<path d="M454.212 300.257V304.607L454.22 305.368V307.463L454.228 308.401C454.228 309.06 454.944 309.467 455.496 309.146L458.916 307.171C459.517 306.825 459.903 306.191 459.945 305.5C459.945 305.45 459.953 305.405 459.953 305.356V301.269H459.945V297.207C459.945 296.549 459.241 296.141 458.661 296.471L458.418 296.606L458.257 296.701L455.265 298.434C454.961 298.611 454.714 298.862 454.533 299.141C454.323 299.479 454.212 299.862 454.212 300.257Z" fill="#456475"/>
<path d="M459.339 296.861L459.343 305.01C459.343 305.755 458.948 306.45 458.306 306.82L454.895 308.792C454.734 308.886 454.557 308.911 454.393 308.895C454.635 309.228 455.105 309.372 455.504 309.142L458.915 307.17C459.562 306.8 459.952 306.1 459.952 305.359L459.948 297.211C459.948 296.746 459.59 296.413 459.179 296.367C459.273 296.507 459.339 296.672 459.339 296.861Z" fill="#9DC2FF"/>
<path d="M434.838 311.104V315.454L434.847 316.216V318.311L434.855 319.249C434.855 319.907 435.571 320.315 436.122 319.994L439.542 318.018C440.143 317.673 440.53 317.039 440.571 316.347C440.571 316.298 440.579 316.253 440.579 316.203V312.117H440.571V308.055C440.571 307.396 439.863 306.989 439.287 307.318L439.044 307.454L438.884 307.549L435.892 309.281C435.587 309.458 435.34 309.709 435.163 309.989C434.954 310.327 434.838 310.709 434.838 311.104Z" fill="#456475"/>
<path d="M439.966 307.714L439.97 315.862C439.97 316.607 439.575 317.303 438.933 317.677L435.521 319.648C435.361 319.743 435.184 319.768 435.019 319.751C435.262 320.085 435.731 320.229 436.13 319.998L439.542 318.027C440.188 317.657 440.579 316.961 440.579 316.216L440.575 308.068C440.575 307.603 440.217 307.269 439.805 307.228C439.904 307.356 439.966 307.524 439.966 307.714Z" fill="#9DC2FF"/>
<path d="M415.472 321.957V326.307L415.48 327.068V329.163L415.488 330.101C415.488 330.76 416.204 331.167 416.756 330.846L420.176 328.871C420.776 328.525 421.163 327.891 421.204 327.2C421.204 327.15 421.213 327.105 421.213 327.056V322.969H421.204V318.907C421.204 318.249 420.497 317.841 419.92 318.171L419.678 318.306L419.517 318.401L416.525 320.134C416.221 320.311 415.974 320.558 415.797 320.837C415.583 321.179 415.472 321.562 415.472 321.957Z" fill="#456475"/>
<path d="M420.599 318.562L420.603 326.71C420.603 327.455 420.208 328.151 419.566 328.521L416.154 330.493C415.994 330.587 415.817 330.612 415.652 330.595C415.895 330.929 416.368 331.073 416.764 330.842L420.175 328.871C420.821 328.501 421.216 327.805 421.212 327.06L421.208 318.912C421.208 318.447 420.85 318.113 420.439 318.068C420.533 318.208 420.599 318.373 420.599 318.562Z" fill="#9DC2FF"/>
<path d="M396.102 332.805V337.155L396.11 337.917V340.011L396.118 340.95C396.118 341.608 396.834 342.016 397.386 341.695L400.806 339.719C401.406 339.373 401.793 338.74 401.834 338.048C401.834 337.999 401.843 337.954 401.843 337.904V333.818H401.834V329.756C401.834 329.097 401.127 328.69 400.55 329.019L400.312 329.155L400.151 329.25L397.159 330.982C396.855 331.159 396.608 331.41 396.431 331.69C396.217 332.027 396.102 332.41 396.102 332.805Z" fill="#456475"/>
<path d="M401.229 329.409L401.233 337.558C401.233 338.303 400.838 338.998 400.196 339.373L396.784 341.344C396.624 341.439 396.447 341.464 396.282 341.447C396.525 341.78 396.998 341.924 397.393 341.694L400.805 339.723C401.451 339.352 401.846 338.657 401.842 337.912L401.838 329.763C401.838 329.298 401.48 328.965 401.068 328.92C401.163 329.056 401.229 329.22 401.229 329.409Z" fill="#9DC2FF"/>
<path d="M376.731 343.653V348.003L376.74 348.764V350.859L376.748 351.797C376.748 352.456 377.464 352.863 378.015 352.542L381.435 350.567C382.036 350.221 382.423 349.587 382.46 348.896C382.46 348.847 382.468 348.801 382.468 348.752V344.665H382.46V340.603C382.46 339.945 381.752 339.538 381.176 339.867L380.937 340.003L380.777 340.097L377.785 341.83C377.48 342.007 377.234 342.254 377.057 342.538C376.843 342.879 376.731 343.262 376.731 343.653Z" fill="#456475"/>
<path d="M381.859 340.262L381.863 348.411C381.863 349.156 381.468 349.851 380.826 350.222L377.414 352.193C377.254 352.283 377.077 352.312 376.912 352.296C377.155 352.629 377.624 352.773 378.023 352.543L381.435 350.571C382.081 350.197 382.476 349.505 382.472 348.756L382.468 340.608C382.468 340.143 382.11 339.81 381.698 339.764C381.793 339.908 381.859 340.073 381.859 340.262Z" fill="#9DC2FF"/>
<path d="M357.361 354.506V358.856L357.369 359.617V361.712L357.377 362.65C357.377 363.309 358.093 363.72 358.645 363.395L362.065 361.42C362.666 361.074 363.052 360.44 363.089 359.749C363.089 359.699 363.098 359.654 363.098 359.605V355.518H363.089V351.456C363.089 350.798 362.382 350.386 361.805 350.715L361.567 350.851L361.406 350.946L358.414 352.678C358.11 352.855 357.859 353.106 357.682 353.386C357.472 353.728 357.361 354.111 357.361 354.506Z" fill="#456475"/>
<path d="M362.49 351.11L362.494 359.258C362.494 360.003 362.099 360.699 361.453 361.073L358.042 363.045C357.881 363.139 357.704 363.164 357.54 363.147C357.782 363.481 358.252 363.625 358.651 363.398L362.062 361.427C362.709 361.057 363.104 360.361 363.099 359.616L363.095 351.468C363.095 351.003 362.737 350.669 362.326 350.628C362.425 350.756 362.49 350.921 362.49 351.11Z" fill="#9DC2FF"/>
<path d="M337.991 365.354V369.704L337.999 370.465V372.56L338.008 373.498C338.008 374.157 338.724 374.564 339.275 374.243L342.695 372.268C343.296 371.922 343.683 371.288 343.724 370.597C343.724 370.547 343.732 370.502 343.732 370.453V366.366H343.724V362.304C343.724 361.646 343.016 361.238 342.44 361.568L342.201 361.703L342.041 361.802L339.049 363.535C338.744 363.712 338.493 363.959 338.316 364.239C338.106 364.576 337.991 364.963 337.991 365.354Z" fill="#456475"/>
<path d="M343.119 361.963L343.123 370.111C343.123 370.856 342.728 371.552 342.086 371.922L338.674 373.894C338.514 373.988 338.337 374.013 338.172 373.996C338.415 374.33 338.884 374.474 339.283 374.243L342.695 372.272C343.341 371.898 343.736 371.206 343.736 370.457L343.732 362.309C343.732 361.844 343.374 361.51 342.963 361.469C343.057 361.609 343.119 361.774 343.119 361.963Z" fill="#9DC2FF"/>
<path d="M318.621 376.206V380.556L318.629 381.317V383.412L318.638 384.35C318.638 385.009 319.35 385.416 319.905 385.095L323.325 383.12C323.926 382.774 324.313 382.14 324.354 381.449C324.354 381.4 324.362 381.354 324.362 381.305V377.223H324.354V373.161C324.354 372.502 323.646 372.095 323.07 372.424L322.831 372.56L322.671 372.654L319.679 374.387C319.374 374.564 319.127 374.815 318.946 375.095C318.732 375.428 318.621 375.811 318.621 376.206Z" fill="#456475"/>
<path d="M323.748 372.811L323.753 380.959C323.753 381.704 323.358 382.4 322.716 382.77L319.304 384.741C319.139 384.836 318.966 384.861 318.802 384.844C319.045 385.178 319.514 385.322 319.913 385.091L323.325 383.12C323.971 382.749 324.366 382.054 324.366 381.309L324.362 373.161C324.362 372.696 324.004 372.362 323.592 372.317C323.683 372.457 323.748 372.621 323.748 372.811Z" fill="#9DC2FF"/>
<path d="M299.251 387.055V391.405L299.259 392.166V394.261L299.267 395.199C299.267 395.858 299.979 396.265 300.535 395.944L303.955 393.969C304.556 393.623 304.943 392.989 304.984 392.298C304.984 392.249 304.992 392.203 304.992 392.154V388.067H304.984V384.005C304.984 383.347 304.276 382.939 303.7 383.269L303.461 383.404L303.301 383.503L300.309 385.236C300.004 385.413 299.757 385.66 299.58 385.944C299.366 386.277 299.251 386.664 299.251 387.055Z" fill="#456475"/>
<path d="M304.381 383.664L304.385 391.812C304.385 392.557 303.99 393.253 303.348 393.623L299.937 395.594C299.776 395.689 299.599 395.714 299.435 395.697C299.677 396.031 300.147 396.175 300.546 395.944L303.957 393.973C304.604 393.602 304.999 392.907 304.999 392.162L304.994 384.014C304.994 383.548 304.636 383.215 304.225 383.174C304.32 383.306 304.381 383.474 304.381 383.664Z" fill="#9DC2FF"/>
<path d="M279.884 397.902V402.252L279.893 403.014V405.108L279.901 406.047C279.901 406.705 280.613 407.113 281.168 406.792L284.588 404.816C285.189 404.471 285.576 403.837 285.617 403.145C285.617 403.096 285.625 403.047 285.625 403.001V398.919H285.617V394.857C285.617 394.199 284.909 393.791 284.333 394.12L284.09 394.256L283.93 394.351L280.938 396.083C280.633 396.26 280.386 396.511 280.205 396.791C279.995 397.129 279.884 397.511 279.884 397.902Z" fill="#456475"/>
<path d="M285.012 394.512L285.016 402.66C285.016 403.405 284.621 404.101 283.979 404.471L280.567 406.442C280.406 406.537 280.23 406.562 280.065 406.545C280.308 406.879 280.777 407.023 281.176 406.792L284.588 404.821C285.234 404.451 285.629 403.751 285.625 403.006L285.621 394.857C285.621 394.392 285.263 394.059 284.851 394.014C284.946 394.158 285.012 394.322 285.012 394.512Z" fill="#9DC2FF"/>
<path d="M260.514 408.755V413.105L260.522 413.866V415.961L260.53 416.899C260.53 417.558 261.246 417.965 261.798 417.644L265.218 415.669C265.818 415.323 266.205 414.689 266.246 413.998C266.246 413.949 266.255 413.903 266.255 413.854V409.767H266.246V405.705C266.246 405.047 265.543 404.635 264.962 404.969L264.72 405.105L264.559 405.199L261.567 406.932C261.263 407.109 261.016 407.356 260.835 407.64C260.629 407.977 260.514 408.364 260.514 408.755Z" fill="#456475"/>
<path d="M265.644 405.364L265.649 413.512C265.649 414.257 265.254 414.952 264.612 415.327L261.2 417.298C261.039 417.393 260.862 417.418 260.698 417.401C260.941 417.734 261.41 417.878 261.809 417.648L265.221 415.677C265.863 415.306 266.262 414.611 266.258 413.866L266.254 405.717C266.254 405.252 265.895 404.919 265.484 404.878C265.583 405.005 265.644 405.17 265.644 405.364Z" fill="#9DC2FF"/>
<path d="M241.146 419.603V423.953L241.155 424.715V426.809L241.163 427.748C241.163 428.406 241.879 428.818 242.43 428.493L245.85 426.517C246.451 426.171 246.838 425.538 246.879 424.846C246.879 424.797 246.887 424.748 246.887 424.702V420.62H246.879V416.558C246.879 415.899 246.175 415.492 245.595 415.821L245.352 415.957L245.192 416.052L242.2 417.784C241.895 417.961 241.649 418.212 241.472 418.488C241.258 418.825 241.146 419.212 241.146 419.603Z" fill="#456475"/>
<path d="M246.275 416.212L246.279 424.36C246.279 425.105 245.884 425.801 245.242 426.171L241.83 428.143C241.67 428.237 241.493 428.262 241.328 428.245C241.571 428.579 242.044 428.723 242.439 428.492L245.851 426.521C246.493 426.151 246.892 425.451 246.888 424.706L246.884 416.558C246.884 416.093 246.526 415.759 246.114 415.714C246.209 415.858 246.275 416.023 246.275 416.212Z" fill="#9DC2FF"/>
<path d="M221.776 430.455V434.805L221.785 435.567V437.662L221.793 438.6C221.793 439.258 222.505 439.666 223.06 439.345L226.48 437.369C227.081 437.024 227.468 436.39 227.509 435.698C227.509 435.649 227.517 435.604 227.517 435.554V431.468H227.509V427.406C227.509 426.747 226.805 426.336 226.225 426.665L225.982 426.801L225.822 426.896L222.83 428.628C222.525 428.805 222.278 429.056 222.101 429.336C221.887 429.678 221.776 430.06 221.776 430.455Z" fill="#456475"/>
<path d="M226.905 427.06L226.909 435.209C226.909 435.954 226.514 436.649 225.872 437.024L222.46 438.995C222.3 439.09 222.123 439.115 221.958 439.098C222.201 439.431 222.674 439.575 223.069 439.349L226.481 437.378C227.127 437.007 227.522 436.312 227.518 435.567L227.514 427.419C227.514 426.953 227.156 426.62 226.744 426.579C226.839 426.707 226.905 426.871 226.905 427.06Z" fill="#9DC2FF"/>
<path d="M202.407 441.304V445.654L202.415 446.416V448.51L202.423 449.449C202.423 450.107 203.139 450.515 203.691 450.194L207.111 448.218C207.712 447.873 208.098 447.239 208.14 446.547C208.14 446.498 208.148 446.453 208.148 446.403V442.317H208.14V438.255C208.14 437.596 207.432 437.189 206.855 437.518L206.617 437.654L206.456 437.749L203.464 439.481C203.16 439.658 202.913 439.909 202.736 440.185C202.522 440.526 202.407 440.913 202.407 441.304Z" fill="#456475"/>
<path d="M207.532 437.913L207.536 446.061C207.536 446.806 207.141 447.502 206.495 447.872L203.084 449.843C202.923 449.938 202.746 449.963 202.582 449.946C202.824 450.28 203.294 450.424 203.693 450.193L207.104 448.222C207.75 447.852 208.146 447.152 208.141 446.407L208.137 438.259C208.137 437.794 207.779 437.46 207.368 437.419C207.471 437.559 207.532 437.724 207.532 437.913Z" fill="#9DC2FF"/>
<path d="M183.037 452.156V456.506L183.045 457.267V459.362L183.053 460.3C183.053 460.959 183.769 461.366 184.321 461.045L187.741 459.07C188.341 458.724 188.728 458.09 188.765 457.399C188.765 457.35 188.774 457.304 188.774 457.255V453.168H188.765V449.106C188.765 448.448 188.057 448.041 187.481 448.37L187.243 448.506L187.082 448.6L184.09 450.333C183.786 450.51 183.535 450.761 183.358 451.041C183.148 451.378 183.037 451.761 183.037 452.156Z" fill="#456475"/>
<path d="M188.165 448.761L188.169 456.909C188.169 457.654 187.774 458.35 187.128 458.724L183.716 460.696C183.556 460.79 183.379 460.815 183.214 460.798C183.457 461.132 183.926 461.276 184.325 461.049L187.737 459.078C188.383 458.708 188.778 458.012 188.774 457.267L188.77 449.119C188.77 448.654 188.412 448.32 188.001 448.275C188.099 448.407 188.165 448.571 188.165 448.761Z" fill="#9DC2FF"/>
<path d="M163.667 463.004V467.354L163.675 468.116V470.21L163.683 471.149C163.683 471.807 164.4 472.215 164.951 471.894L168.371 469.918C168.972 469.573 169.359 468.939 169.396 468.247C169.396 468.198 169.404 468.153 169.404 468.103V464.017H169.396V459.955C169.396 459.296 168.692 458.889 168.112 459.218L167.873 459.354L167.712 459.449L164.721 461.181C164.416 461.358 164.165 461.605 163.988 461.889C163.782 462.227 163.667 462.613 163.667 463.004Z" fill="#456475"/>
<path d="M168.795 459.613L168.799 467.762C168.799 468.507 168.404 469.202 167.758 469.577L164.346 471.548C164.186 471.642 164.009 471.667 163.844 471.651C164.087 471.984 164.556 472.128 164.955 471.898L168.367 469.926C169.013 469.556 169.408 468.86 169.404 468.116L169.4 459.967C169.4 459.502 169.042 459.169 168.63 459.128C168.733 459.255 168.795 459.424 168.795 459.613Z" fill="#9DC2FF"/>
<path d="M556.42 212.742L557.474 216.964L557.667 217.701L558.173 219.734L558.408 220.644C558.568 221.281 559.358 221.508 559.819 221.059L562.659 218.318C563.161 217.837 563.379 217.129 563.252 216.45C563.239 216.405 563.235 216.355 563.223 216.31L562.235 212.347H562.227L561.243 208.408C561.083 207.771 560.301 207.544 559.819 208.001L559.618 208.19L559.486 208.322L557 210.73C556.745 210.976 556.564 211.277 556.461 211.59C556.342 211.96 556.325 212.363 556.42 212.742Z" fill="#456475"/>
<path d="M560.575 208.211L562.551 216.117C562.732 216.841 562.518 217.61 561.983 218.125L559.147 220.862C559.011 220.993 558.851 221.059 558.682 221.084C558.999 221.347 559.489 221.376 559.818 221.055L562.654 218.318C563.189 217.8 563.403 217.03 563.221 216.31L561.246 208.404C561.135 207.952 560.703 207.717 560.295 207.775C560.427 207.882 560.53 208.026 560.575 208.211Z" fill="#9DC2FF"/>
<path d="M536.033 224.167L537.086 228.385L537.28 229.122L537.786 231.155L538.021 232.064C538.181 232.702 538.971 232.928 539.432 232.48L542.272 229.735C542.774 229.253 542.992 228.546 542.864 227.866C542.852 227.817 542.848 227.772 542.836 227.722L541.848 223.759L541.84 223.763L540.856 219.821C540.7 219.183 539.914 218.957 539.432 219.413L539.23 219.603L539.099 219.734L536.613 222.142C536.362 222.385 536.181 222.689 536.074 223.002C535.955 223.385 535.938 223.784 536.033 224.167Z" fill="#456475"/>
<path d="M540.192 219.631L542.167 227.537C542.348 228.261 542.134 229.031 541.599 229.549L538.764 232.286C538.628 232.417 538.468 232.483 538.299 232.508C538.616 232.776 539.105 232.8 539.435 232.479L542.27 229.742C542.805 229.224 543.019 228.454 542.838 227.73L540.863 219.824C540.752 219.376 540.319 219.137 539.912 219.195C540.044 219.306 540.143 219.446 540.192 219.631Z" fill="#9DC2FF"/>
<path d="M515.646 235.586L516.7 239.809L516.893 240.545L517.399 242.578L517.634 243.488C517.794 244.126 518.585 244.352 519.045 243.903L521.885 241.162C522.387 240.681 522.605 239.973 522.478 239.294C522.465 239.249 522.461 239.199 522.449 239.154L521.461 235.191H521.453L520.469 231.253C520.309 230.615 519.527 230.388 519.045 230.845L518.844 231.034L518.712 231.166L516.226 233.574C515.971 233.821 515.794 234.121 515.687 234.434C515.568 234.804 515.551 235.203 515.646 235.586Z" fill="#456475"/>
<path d="M519.798 231.056L521.774 238.961C521.955 239.686 521.741 240.455 521.206 240.97L518.37 243.707C518.235 243.838 518.074 243.904 517.905 243.929C518.222 244.196 518.712 244.221 519.045 243.9L521.881 241.163C522.416 240.645 522.63 239.875 522.449 239.155L520.473 231.249C520.362 230.801 519.93 230.562 519.523 230.62C519.65 230.727 519.753 230.871 519.798 231.056Z" fill="#9DC2FF"/>
<path d="M495.259 247.007L496.312 251.225L496.506 251.962L497.012 253.995L497.246 254.904C497.407 255.542 498.197 255.769 498.658 255.32L501.498 252.575C501.996 252.094 502.218 251.386 502.09 250.707C502.078 250.657 502.074 250.612 502.061 250.563L501.074 246.599L501.065 246.604L500.082 242.661C499.921 242.023 499.139 241.797 498.658 242.254L498.456 242.443L498.325 242.575L495.839 244.982C495.588 245.225 495.407 245.529 495.304 245.842C495.176 246.225 495.16 246.624 495.259 247.007Z" fill="#456475"/>
<path d="M499.408 242.476L501.384 250.382C501.565 251.106 501.351 251.876 500.816 252.394L497.98 255.131C497.844 255.263 497.684 255.328 497.515 255.353C497.832 255.621 498.322 255.641 498.651 255.324L501.486 252.588C502.021 252.069 502.236 251.299 502.054 250.575L500.079 242.669C499.968 242.221 499.536 241.982 499.128 242.04C499.26 242.147 499.363 242.291 499.408 242.476Z" fill="#9DC2FF"/>
<path d="M474.865 258.427L475.919 262.649L476.112 263.386L476.618 265.419L476.853 266.329C477.014 266.966 477.804 267.193 478.265 266.744L481.104 264.003C481.606 263.522 481.825 262.814 481.697 262.135C481.685 262.09 481.68 262.04 481.668 261.995L480.68 258.032H480.672L479.689 254.093C479.528 253.456 478.746 253.229 478.265 253.686L478.063 253.875L477.931 254.007L475.446 256.415C475.195 256.662 475.013 256.962 474.906 257.275C474.787 257.645 474.771 258.048 474.865 258.427Z" fill="#456475"/>
<path d="M479.024 253.897L481 261.802C481.181 262.527 480.967 263.296 480.432 263.811L477.596 266.547C477.461 266.679 477.3 266.745 477.131 266.77C477.448 267.037 477.938 267.062 478.267 266.741L481.103 264.004C481.638 263.485 481.852 262.716 481.671 261.996L479.695 254.09C479.584 253.637 479.152 253.403 478.745 253.46C478.876 253.567 478.975 253.711 479.024 253.897Z" fill="#9DC2FF"/>
<path d="M454.475 269.852L455.529 274.07L455.722 274.806L456.228 276.84L456.463 277.749C456.623 278.387 457.414 278.613 457.875 278.169L460.714 275.424C461.216 274.942 461.434 274.234 461.307 273.555C461.294 273.506 461.29 273.461 461.278 273.411L460.29 269.448L460.282 269.452L459.298 265.51C459.138 264.872 458.356 264.646 457.875 265.102L457.673 265.292L457.541 265.423L455.055 267.831C454.8 268.074 454.623 268.378 454.516 268.691C454.397 269.066 454.381 269.469 454.475 269.852Z" fill="#456475"/>
<path d="M458.631 265.316L460.607 273.222C460.788 273.946 460.574 274.716 460.039 275.23L457.203 277.967C457.067 278.099 456.907 278.165 456.738 278.189C457.055 278.457 457.545 278.477 457.874 278.161L460.71 275.424C461.245 274.905 461.459 274.136 461.278 273.411L459.302 265.506C459.191 265.057 458.759 264.818 458.352 264.876C458.483 264.987 458.586 265.131 458.631 265.316Z" fill="#9DC2FF"/>
<path d="M434.088 281.272L435.142 285.494L435.335 286.231L435.842 288.264L436.076 289.173C436.237 289.811 437.027 290.038 437.488 289.589L440.327 286.848C440.83 286.367 441.048 285.659 440.92 284.98C440.908 284.935 440.904 284.885 440.891 284.84L439.904 280.877H439.895L438.912 276.938C438.751 276.3 437.969 276.074 437.488 276.531L437.286 276.72L437.154 276.852L434.669 279.259C434.414 279.506 434.237 279.807 434.13 280.12C434.01 280.49 433.994 280.889 434.088 281.272Z" fill="#456475"/>
<path d="M438.245 276.736L440.22 284.642C440.401 285.366 440.187 286.136 439.652 286.65L436.817 289.387C436.681 289.519 436.52 289.584 436.352 289.609C436.668 289.877 437.158 289.901 437.487 289.58L440.323 286.844C440.858 286.325 441.072 285.555 440.891 284.835L438.915 276.93C438.804 276.477 438.372 276.242 437.965 276.3C438.096 276.407 438.199 276.555 438.245 276.736Z" fill="#9DC2FF"/>
<path d="M413.698 292.692L414.752 296.91L414.945 297.647L415.452 299.68L415.686 300.59C415.847 301.228 416.637 301.454 417.098 301.009L419.937 298.264C420.439 297.783 420.657 297.075 420.53 296.396C420.518 296.351 420.513 296.301 420.501 296.252L419.513 292.289L419.505 292.293L418.522 288.35C418.361 287.712 417.579 287.486 417.098 287.947L416.896 288.136L416.764 288.268L414.279 290.676C414.023 290.918 413.847 291.223 413.74 291.536C413.62 291.91 413.604 292.309 413.698 292.692Z" fill="#456475"/>
<path d="M417.855 288.156L419.83 296.062C420.011 296.786 419.797 297.556 419.262 298.07L416.426 300.807C416.291 300.939 416.13 301.005 415.961 301.029C416.278 301.297 416.768 301.317 417.101 301.001L419.937 298.264C420.472 297.745 420.686 296.976 420.505 296.251L418.529 288.346C418.418 287.897 417.99 287.658 417.579 287.716C417.706 287.831 417.809 287.975 417.855 288.156Z" fill="#9DC2FF"/>
<path d="M393.312 304.113L394.365 308.335L394.559 309.072L395.065 311.105L395.299 312.014C395.46 312.652 396.25 312.879 396.711 312.434L399.551 309.693C400.053 309.212 400.271 308.504 400.143 307.825C400.131 307.78 400.127 307.73 400.114 307.685L399.127 303.722H399.118L398.135 299.783C397.974 299.145 397.192 298.919 396.711 299.376L396.509 299.565L396.378 299.697L393.892 302.104C393.641 302.351 393.46 302.652 393.353 302.965C393.233 303.331 393.217 303.73 393.312 304.113Z" fill="#456475"/>
<path d="M397.466 299.582L399.442 307.487C399.623 308.212 399.409 308.981 398.874 309.5L396.042 312.237C395.906 312.368 395.746 312.434 395.577 312.459C395.894 312.726 396.384 312.751 396.713 312.43L399.549 309.693C400.084 309.175 400.298 308.405 400.116 307.685L398.141 299.779C398.03 299.326 397.598 299.092 397.19 299.149C397.314 299.252 397.417 299.396 397.466 299.582Z" fill="#9DC2FF"/>
<path d="M372.921 315.533L373.975 319.751L374.168 320.488L374.675 322.521L374.909 323.431C375.07 324.068 375.86 324.295 376.321 323.85L379.16 321.105C379.663 320.624 379.881 319.916 379.753 319.237C379.741 319.192 379.737 319.142 379.724 319.093L378.737 315.13H378.728L377.745 311.191C377.584 310.553 376.802 310.327 376.321 310.788L376.119 310.977L375.987 311.109L373.502 313.517C373.247 313.759 373.07 314.064 372.963 314.377C372.843 314.751 372.827 315.154 372.921 315.533Z" fill="#456475"/>
<path d="M377.074 311.002L379.049 318.908C379.23 319.632 379.016 320.402 378.481 320.916L375.646 323.653C375.51 323.784 375.349 323.85 375.181 323.875C375.498 324.142 375.987 324.167 376.321 323.846L379.156 321.109C379.691 320.591 379.905 319.821 379.724 319.097L377.749 311.191C377.638 310.743 377.205 310.504 376.798 310.562C376.926 310.673 377.028 310.817 377.074 311.002Z" fill="#9DC2FF"/>
<path d="M352.537 326.953L353.591 331.175L353.784 331.912L354.291 333.945L354.525 334.854C354.686 335.492 355.476 335.719 355.937 335.274L358.776 332.533C359.279 332.052 359.497 331.344 359.369 330.665C359.357 330.62 359.353 330.57 359.34 330.525L358.353 326.562H358.344L357.365 322.623C357.204 321.985 356.422 321.759 355.941 322.216L355.739 322.405L355.608 322.537L353.122 324.944C352.867 325.191 352.686 325.492 352.583 325.805C352.455 326.175 352.439 326.574 352.537 326.953Z" fill="#456475"/>
<path d="M356.688 322.422L358.663 330.328C358.844 331.052 358.63 331.821 358.095 332.336L355.26 335.073C355.124 335.204 354.963 335.27 354.794 335.295C355.111 335.562 355.601 335.587 355.93 335.266L358.766 332.529C359.301 332.011 359.515 331.241 359.334 330.521L357.358 322.615C357.247 322.163 356.815 321.928 356.408 321.986C356.539 322.093 356.642 322.237 356.688 322.422Z" fill="#9DC2FF"/>
<path d="M332.142 338.377L333.195 342.599L333.389 343.336L333.895 345.369L334.129 346.279C334.29 346.916 335.08 347.143 335.541 346.698L338.381 343.953C338.883 343.472 339.101 342.764 338.973 342.085C338.961 342.04 338.957 341.99 338.944 341.941L337.957 337.978H337.949L336.965 334.039C336.804 333.401 336.023 333.175 335.541 333.636L335.339 333.825L335.208 333.957L332.722 336.364C332.471 336.607 332.29 336.912 332.183 337.225C332.064 337.595 332.047 337.994 332.142 338.377Z" fill="#456475"/>
<path d="M336.301 333.842L338.276 341.748C338.457 342.472 338.243 343.241 337.708 343.756L334.873 346.493C334.737 346.624 334.576 346.69 334.408 346.715C334.725 346.982 335.214 347.007 335.548 346.686L338.383 343.949C338.918 343.431 339.132 342.661 338.951 341.941L336.976 334.035C336.865 333.587 336.433 333.348 336.025 333.406C336.153 333.513 336.256 333.661 336.301 333.842Z" fill="#9DC2FF"/>
<path d="M311.754 349.798L312.808 354.016L313.001 354.753L313.508 356.786L313.742 357.695C313.903 358.333 314.693 358.56 315.154 358.115L317.993 355.374C318.496 354.893 318.714 354.185 318.586 353.506C318.574 353.461 318.57 353.411 318.557 353.366L317.57 349.403H317.561L316.578 345.464C316.417 344.827 315.635 344.6 315.154 345.057L314.952 345.246L314.82 345.378L312.335 347.786C312.08 348.032 311.899 348.333 311.796 348.646C311.676 349.016 311.66 349.415 311.754 349.798Z" fill="#456475"/>
<path d="M315.91 345.266L317.885 353.172C318.066 353.896 317.852 354.666 317.317 355.18L314.482 357.917C314.346 358.049 314.185 358.114 314.017 358.139C314.333 358.407 314.823 358.431 315.152 358.11L317.988 355.373C318.523 354.855 318.737 354.085 318.556 353.365L316.581 345.459C316.469 345.007 316.037 344.772 315.63 344.83C315.762 344.937 315.864 345.081 315.91 345.266Z" fill="#9DC2FF"/>
<path d="M291.367 361.218L292.42 365.44L292.614 366.177L293.12 368.21L293.354 369.119C293.511 369.757 294.305 369.984 294.766 369.539L297.605 366.794C298.108 366.313 298.326 365.605 298.198 364.926C298.186 364.88 298.182 364.831 298.169 364.786L297.182 360.823H297.173L296.19 356.884C296.029 356.246 295.247 356.02 294.766 356.481L294.564 356.67L294.433 356.802L291.947 359.209C291.696 359.452 291.515 359.757 291.408 360.069C291.288 360.436 291.268 360.835 291.367 361.218Z" fill="#456475"/>
<path d="M295.52 356.687L297.495 364.592C297.677 365.317 297.463 366.086 296.928 366.601L294.092 369.338C293.956 369.469 293.796 369.535 293.627 369.56C293.944 369.827 294.434 369.852 294.767 369.531L297.602 366.794C298.137 366.276 298.351 365.506 298.17 364.786L296.195 356.88C296.084 356.432 295.652 356.193 295.244 356.251C295.372 356.358 295.475 356.502 295.52 356.687Z" fill="#9DC2FF"/>
<path d="M270.974 372.638L272.028 376.856L272.221 377.593L272.727 379.626L272.962 380.536C273.122 381.174 273.913 381.4 274.374 380.955L277.213 378.215C277.715 377.733 277.933 377.025 277.806 376.346C277.793 376.301 277.789 376.252 277.777 376.206L276.789 372.243H276.781L275.797 368.305C275.641 367.667 274.855 367.44 274.374 367.897L274.172 368.087L274.04 368.218L271.554 370.626C271.299 370.873 271.122 371.173 271.015 371.486C270.896 371.856 270.88 372.26 270.974 372.638Z" fill="#456475"/>
<path d="M275.133 368.107L277.108 376.013C277.289 376.737 277.075 377.507 276.54 378.021L273.705 380.758C273.569 380.89 273.408 380.955 273.24 380.98C273.557 381.244 274.046 381.272 274.376 380.951L277.211 378.215C277.746 377.696 277.96 376.927 277.779 376.206L275.804 368.301C275.692 367.848 275.26 367.613 274.853 367.671C274.985 367.778 275.088 367.922 275.133 368.107Z" fill="#9DC2FF"/>
<path d="M250.587 384.058L251.64 388.281L251.834 389.017L252.34 391.05L252.574 391.96C252.731 392.598 253.525 392.824 253.986 392.375L256.826 389.635C257.328 389.153 257.546 388.445 257.418 387.766C257.406 387.721 257.402 387.672 257.389 387.626L256.402 383.663H256.394L255.41 379.725C255.249 379.087 254.468 378.86 253.986 379.317L253.784 379.507L253.653 379.638L251.167 382.046C250.916 382.289 250.735 382.593 250.632 382.906C250.508 383.276 250.492 383.68 250.587 384.058Z" fill="#456475"/>
<path d="M254.746 379.527L256.722 387.433C256.903 388.157 256.689 388.927 256.154 389.441L253.318 392.178C253.182 392.309 253.022 392.375 252.853 392.4C253.17 392.667 253.66 392.688 253.993 392.371L256.829 389.634C257.364 389.116 257.578 388.346 257.396 387.626L255.421 379.72C255.31 379.272 254.878 379.033 254.47 379.091C254.594 379.198 254.697 379.342 254.746 379.527Z" fill="#9DC2FF"/>
<path d="M230.2 395.483L231.254 399.701L231.447 400.438L231.953 402.471L232.188 403.38C232.349 404.018 233.139 404.244 233.6 403.796L236.439 401.055C236.941 400.573 237.159 399.866 237.032 399.187C237.02 399.141 237.015 399.092 237.003 399.043L236.015 395.079H236.007L235.024 391.141C234.863 390.503 234.081 390.277 233.6 390.734L233.398 390.923L233.266 391.055L230.781 393.462C230.525 393.709 230.344 394.009 230.241 394.322C230.122 394.701 230.106 395.1 230.2 395.483Z" fill="#456475"/>
<path d="M234.353 390.948L236.328 398.853C236.51 399.578 236.296 400.347 235.761 400.862L232.925 403.598C232.789 403.73 232.629 403.796 232.46 403.817C232.777 404.084 233.267 404.109 233.596 403.788L236.431 401.051C236.966 400.533 237.18 399.763 236.999 399.043L235.024 391.137C234.913 390.684 234.481 390.45 234.073 390.507C234.205 390.618 234.308 390.763 234.353 390.948Z" fill="#9DC2FF"/>
<path d="M209.813 406.903L210.867 411.126L211.06 411.862L211.566 413.895L211.801 414.805C211.961 415.443 212.752 415.669 213.212 415.22L216.052 412.48C216.55 411.998 216.772 411.29 216.645 410.611C216.632 410.566 216.628 410.517 216.616 410.467L215.628 406.504H215.62L214.636 402.566C214.476 401.928 213.694 401.701 213.212 402.158L213.011 402.347L212.879 402.479L210.393 404.887C210.138 405.129 209.961 405.434 209.854 405.747C209.731 406.121 209.714 406.52 209.813 406.903Z" fill="#456475"/>
<path d="M213.963 402.368L215.938 410.274C216.119 410.998 215.905 411.767 215.37 412.282L212.535 415.019C212.399 415.15 212.239 415.216 212.07 415.241C212.387 415.508 212.876 415.529 213.21 415.212L216.045 412.475C216.58 411.957 216.794 411.187 216.613 410.467L214.638 402.561C214.527 402.113 214.095 401.874 213.687 401.932C213.815 402.039 213.918 402.187 213.963 402.368Z" fill="#9DC2FF"/>
<path d="M189.42 418.323L190.474 422.541L190.667 423.278L191.173 425.311L191.408 426.22C191.568 426.858 192.358 427.085 192.819 426.636L195.659 423.895C196.161 423.414 196.379 422.706 196.252 422.027C196.239 421.981 196.235 421.932 196.223 421.883L195.235 417.92H195.227L194.243 413.981C194.087 413.343 193.301 413.117 192.819 413.574L192.618 413.763L192.486 413.895L190 416.302C189.745 416.549 189.564 416.85 189.461 417.162C189.342 417.541 189.325 417.94 189.42 418.323Z" fill="#456475"/>
<path d="M193.576 413.792L195.552 421.698C195.733 422.422 195.519 423.192 194.984 423.706L192.148 426.443C192.012 426.575 191.852 426.641 191.683 426.665C192 426.933 192.49 426.957 192.819 426.636L195.654 423.9C196.189 423.381 196.403 422.612 196.222 421.891L194.247 413.986C194.136 413.533 193.704 413.298 193.296 413.356C193.428 413.463 193.527 413.607 193.576 413.792Z" fill="#9DC2FF"/>
<path d="M169.033 429.743L170.087 433.966L170.28 434.702L170.786 436.735L171.021 437.645C171.182 438.283 171.972 438.509 172.433 438.061L175.272 435.32C175.774 434.838 175.992 434.13 175.865 433.451C175.853 433.406 175.848 433.357 175.836 433.307L174.848 429.344H174.84L173.857 425.406C173.696 424.768 172.914 424.542 172.433 424.998L172.231 425.188L172.099 425.319L169.614 427.727C169.358 427.974 169.181 428.274 169.074 428.587C168.955 428.961 168.939 429.365 169.033 429.743Z" fill="#456475"/>
<path d="M173.186 425.213L175.161 433.118C175.343 433.843 175.129 434.612 174.594 435.127L171.758 437.863C171.622 437.995 171.462 438.061 171.293 438.086C171.61 438.353 172.1 438.374 172.433 438.057L175.268 435.32C175.803 434.802 176.017 434.032 175.836 433.312L173.861 425.406C173.75 424.958 173.318 424.719 172.91 424.776C173.038 424.883 173.141 425.027 173.186 425.213Z" fill="#9DC2FF"/>
<path d="M84.2186 473.692L79.6299 440.946L82.7782 440.501L87.3627 473.243L84.2186 473.692Z" fill="#FAFDFF"/>
<path d="M34.8127 476.17L31.9937 474.68L52.7271 435.617L55.5462 437.111L34.8127 476.17Z" fill="#FAFDFF"/>
<defs>
<linearGradient id="paint0_linear_104_258" x1="70.8297" y1="472.802" x2="71.4087" y2="425.305" gradientUnits="userSpaceOnUse">
<stop offset="0.0837" stop-color="#597E90"/>
<stop offset="0.4241" stop-color="#4D6976"/>
<stop offset="0.9409" stop-color="#3C4B52"/>
</linearGradient>
</defs>
</svg>
