<svg width="128" height="126" viewBox="0 0 128 126" fill="none" xmlns="http://www.w3.org/2000/svg">
<circle cx="64" cy="63" r="58.5" stroke="white" stroke-width="3"/>
<path d="M92.5 91.5682C92.5 89.0682 79 57.0682 79 57.0682C79.8333 52.4015 77 59.8682 69 71.0682C69 71.0682 85.5 102.568 87 102.568C88.5 102.568 92.5 94.0682 92.5 91.5682Z" fill="white" stroke="white" stroke-width="2"/>
<path fill-rule="evenodd" clip-rule="evenodd" d="M56.3147 61.648C56.6351 61.1982 56.5301 60.5738 56.0803 60.2534C55.9084 60.1309 55.7109 60.0706 55.5147 60.0679L55.4469 60.065L55.167 60.0528C54.9216 60.042 54.5615 60.026 54.1028 60.0052C53.1855 59.9636 51.8741 59.9026 50.2983 59.8252C47.1463 59.6703 42.9385 59.4497 38.712 59.1868C34.4828 58.9237 30.246 58.6188 27.0317 58.2958C25.4214 58.134 24.0874 57.9696 23.1453 57.8066C22.8422 57.7542 22.592 57.704 22.393 57.657C22.4803 57.4416 22.6144 57.1716 22.7991 56.8513C23.2731 56.0294 24.0009 55.012 24.8363 53.9813C25.6687 52.9543 26.5863 51.9408 27.4261 51.126C28.2961 50.2819 28.9922 49.7412 29.392 49.5548L29.3879 49.5567C29.3879 49.5567 29.3889 49.5564 29.391 49.5557C29.4014 49.5521 29.4393 49.5391 29.5165 49.5199C29.6172 49.4948 29.7536 49.4667 29.929 49.4364C30.2795 49.3758 30.7465 49.3132 31.3209 49.2497C32.4678 49.1228 33.9955 48.9973 35.7794 48.8754C39.3446 48.6317 43.8928 48.4051 48.3775 48.2112C52.8607 48.0173 57.2738 47.8565 60.5667 47.7441C62.213 47.6878 63.5789 47.6438 64.5332 47.6137C65.0103 47.5987 65.3845 47.5872 65.6394 47.5795L65.9301 47.5707L66.0044 47.5685L66.0232 47.5679L66.0279 47.5678L66.029 47.5677C66.0291 47.5677 66.0291 47.5677 66.0291 47.5676C66.3311 47.5586 66.6255 47.4134 66.8145 47.1484L81.5613 26.4596C83.9217 23.148 88.5202 22.3777 91.831 24.7393C95.1411 27.1003 95.9104 31.6976 93.5494 35.0076L50.7184 95.0544C48.05 98.7954 42.6555 99.2315 39.4207 95.9678C36.8817 93.4061 36.5555 89.3885 38.648 86.4507L56.3147 61.648ZM65.4737 45.5836C65.2246 45.5912 64.8865 45.6016 64.4703 45.6147C63.5145 45.6448 62.1468 45.6889 60.4984 45.7452C57.2021 45.8578 52.7824 46.0189 48.2911 46.213C43.8014 46.4071 39.2335 46.6346 35.6431 46.88C33.8491 47.0026 32.2891 47.1304 31.1011 47.2618C30.5081 47.3274 29.9959 47.3951 29.5883 47.4656C29.2188 47.5295 28.825 47.6124 28.5467 47.7421C27.8136 48.084 26.9084 48.8416 26.0335 49.6905C25.1284 50.5686 24.1575 51.6425 23.2826 52.7219C22.4107 53.7976 21.6125 54.9054 21.0666 55.8522C20.7956 56.322 20.5665 56.7868 20.4278 57.2091C20.3583 57.4208 20.3016 57.6512 20.2838 57.8851C20.2663 58.1132 20.2807 58.4101 20.4181 58.7046C20.5881 59.0692 20.9084 59.2405 21.0177 59.2972C21.1775 59.3801 21.3553 59.4435 21.5222 59.4942C21.8616 59.5972 22.3019 59.6904 22.8044 59.7774C23.818 59.9526 25.2084 60.1227 26.8318 60.2858C30.0849 60.6127 34.3523 60.9194 38.5878 61.1829C42.826 61.4466 47.0432 61.6677 50.2001 61.8228C51.5659 61.8899 52.7335 61.9447 53.619 61.9853L37.019 85.2904C34.3618 89.0209 34.776 94.1227 38.0002 97.3757C42.1079 101.52 48.9582 100.966 52.3467 96.2158L95.1776 36.169C98.18 31.9598 97.2017 26.1135 92.9924 23.1111C88.7822 20.1079 82.9344 21.0875 79.9326 25.2987L65.4737 45.5836ZM22.2778 58.039L22.2777 58.0429C22.2777 58.043 22.2777 58.0428 22.2777 58.0424C22.2777 58.0418 22.2777 58.0406 22.2778 58.039Z" fill="white"/>
<path d="M29 48.5L66 46.5L77.5 29.5L80.5 25.5L82.5 24L85.5 22.5L89 23L92 24L94 25.5L95.5 28L96 31.5L94.5 35.5L67 74L52 94L48 99H42.5L38 96.5L36.5 92.5V87.5L46.5 74L55 61L22 58.5V57.5L29 48.5Z" fill="white"/>
</svg>
